G04 EAGLE Gerber RS-274X export*
G75*
%MOMM*%
%FSLAX34Y34*%
%LPD*%
%INTop Copper*%
%IPPOS*%
%AMOC8*
5,1,8,0,0,1.08239X$1,22.5*%
G01*
%ADD10P,2.336880X8X22.500000*%
%ADD11C,1.879600*%
%ADD12C,1.250000*%


D10*
X304800Y635000D03*
X330200Y635000D03*
X355600Y635000D03*
X381000Y635000D03*
X406400Y635000D03*
X431800Y635000D03*
X457200Y635000D03*
X482600Y635000D03*
D11*
X203200Y444500D03*
X228600Y444500D03*
X254000Y444500D03*
X279400Y444500D03*
X304800Y444500D03*
X330200Y444500D03*
X355600Y444500D03*
X381000Y444500D03*
X406400Y444500D03*
X431800Y444500D03*
X457200Y444500D03*
X482600Y444500D03*
X482600Y596900D03*
X457200Y596900D03*
X431800Y596900D03*
X406400Y596900D03*
X381000Y596900D03*
X355600Y596900D03*
X330200Y596900D03*
X304800Y596900D03*
X279400Y596900D03*
X254000Y596900D03*
X228600Y596900D03*
X203200Y596900D03*
D10*
X368300Y381000D03*
X355600Y355600D03*
X342900Y381000D03*
X330200Y355600D03*
X317500Y381000D03*
X304800Y355600D03*
X292100Y381000D03*
X279400Y355600D03*
D12*
X254000Y444500D02*
X254000Y469900D01*
X196850Y469900D01*
X180975Y485775D01*
X180975Y619125D01*
X211138Y619125D01*
X228600Y601663D01*
X228600Y596900D01*
X304800Y444500D02*
X304800Y422275D01*
X301625Y422275D01*
X269875Y390525D01*
X269875Y355600D01*
X279400Y355600D01*
X330200Y403225D02*
X330200Y444500D01*
X330200Y403225D02*
X307975Y403225D01*
X292100Y387350D01*
X292100Y381000D01*
X279400Y425450D02*
X279400Y444500D01*
X279400Y425450D02*
X250825Y396875D01*
X250825Y333375D01*
X288925Y333375D01*
X304800Y349250D01*
X304800Y355600D01*
X317500Y355600D01*
X330200Y355600D01*
X317500Y355600D02*
X317500Y381000D01*
X203200Y488950D02*
X203200Y596900D01*
X203200Y488950D02*
X468313Y488950D01*
X504825Y452438D01*
X504825Y381000D01*
X368300Y381000D01*
X355600Y381000D01*
X342900Y381000D01*
X355600Y381000D02*
X355600Y355600D01*
X304800Y596900D02*
X304800Y635000D01*
X330200Y635000D02*
X330200Y596900D01*
X355600Y596900D02*
X355600Y635000D01*
X381000Y635000D02*
X381000Y596900D01*
X406400Y596900D02*
X406400Y635000D01*
X431800Y635000D02*
X431800Y596900D01*
X457200Y596900D02*
X457200Y635000D01*
X482600Y635000D02*
X482600Y596900D01*
M02*
