G04 EAGLE Gerber RS-274X export*
G75*
%MOMM*%
%FSLAX34Y34*%
%LPD*%
%INBottom Copper*%
%IPPOS*%
%AMOC8*
5,1,8,0,0,1.08239X$1,22.5*%
G01*
%ADD10P,2.336880X8X22.500000*%
%ADD11C,1.879600*%
%ADD12P,2.336880X8X112.500000*%


D10*
X628650Y215900D03*
X628650Y177800D03*
X628650Y254000D03*
D11*
X381000Y520700D03*
X381000Y495300D03*
X381000Y469900D03*
X381000Y444500D03*
X381000Y419100D03*
X381000Y393700D03*
X381000Y368300D03*
X381000Y342900D03*
X381000Y317500D03*
X381000Y292100D03*
X381000Y266700D03*
X381000Y241300D03*
X533400Y241300D03*
X533400Y266700D03*
X533400Y292100D03*
X533400Y317500D03*
X533400Y342900D03*
X533400Y368300D03*
X533400Y393700D03*
X533400Y419100D03*
X533400Y444500D03*
X533400Y469900D03*
X533400Y495300D03*
X533400Y520700D03*
D10*
X685800Y254000D03*
X685800Y215900D03*
X577850Y177800D03*
X577850Y215900D03*
D12*
X501650Y190500D03*
X488950Y165100D03*
X476250Y190500D03*
X463550Y165100D03*
X450850Y190500D03*
X438150Y165100D03*
X425450Y190500D03*
X412750Y165100D03*
D10*
X628650Y336550D03*
X628650Y361950D03*
X628650Y387350D03*
X628650Y412750D03*
X628650Y469900D03*
X628650Y495300D03*
X628650Y520700D03*
M02*
