G04 EAGLE Gerber RS-274X export*
G75*
%MOMM*%
%FSLAX34Y34*%
%LPD*%
%INTop Copper*%
%IPNEG*%
%AMOC8*
5,1,8,0,0,1.08239X$1,22.5*%
G01*
%ADD10P,2.336880X8X22.500000*%
%ADD11C,1.879600*%
%ADD12P,2.336880X8X112.500000*%
%ADD13C,1.250000*%


D10*
X628650Y215900D03*
X628650Y177800D03*
X628650Y254000D03*
D11*
X381000Y520700D03*
X381000Y495300D03*
X381000Y469900D03*
X381000Y444500D03*
X381000Y419100D03*
X381000Y393700D03*
X381000Y368300D03*
X381000Y342900D03*
X381000Y317500D03*
X381000Y292100D03*
X381000Y266700D03*
X381000Y241300D03*
X533400Y241300D03*
X533400Y266700D03*
X533400Y292100D03*
X533400Y317500D03*
X533400Y342900D03*
X533400Y368300D03*
X533400Y393700D03*
X533400Y419100D03*
X533400Y444500D03*
X533400Y469900D03*
X533400Y495300D03*
X533400Y520700D03*
D10*
X685800Y254000D03*
X685800Y215900D03*
X577850Y177800D03*
X577850Y215900D03*
D12*
X501650Y139700D03*
X488950Y114300D03*
X476250Y139700D03*
X463550Y114300D03*
X450850Y139700D03*
X438150Y114300D03*
X425450Y139700D03*
X412750Y114300D03*
D10*
X628650Y336550D03*
X628650Y361950D03*
X628650Y387350D03*
X628650Y412750D03*
X628650Y469900D03*
X628650Y495300D03*
X628650Y520700D03*
D13*
X381000Y469900D02*
X381000Y444500D01*
X444500Y463550D02*
X444500Y215900D01*
X444500Y463550D02*
X527050Y546100D01*
X660400Y546100D01*
X660400Y495300D01*
X628650Y495300D01*
X368300Y215900D02*
X349250Y234950D01*
X349250Y349250D01*
X368300Y368300D01*
X381000Y368300D01*
X368300Y215900D02*
X444500Y215900D01*
X450850Y114300D02*
X463550Y114300D01*
X450850Y114300D02*
X438150Y114300D01*
X450850Y114300D02*
X450850Y139700D01*
X577850Y215900D02*
X628650Y215900D01*
X654050Y215900D01*
X685800Y215900D01*
X711200Y361950D02*
X628650Y361950D01*
X711200Y361950D02*
X711200Y241300D01*
X685800Y215900D01*
X463550Y114300D02*
X463550Y107950D01*
X482600Y88900D01*
X654050Y88900D01*
X654050Y215900D01*
X476250Y171450D02*
X476250Y441325D01*
X476250Y171450D02*
X450850Y146050D01*
X450850Y139700D01*
X476250Y441325D02*
X505460Y485140D01*
X520700Y495300D01*
X533400Y495300D01*
X628650Y520700D01*
X323850Y228600D02*
X412750Y139700D01*
X425450Y139700D01*
X323850Y228600D02*
X323850Y361950D01*
X355600Y393700D01*
X381000Y393700D01*
X501650Y127000D02*
X488950Y114300D01*
X501650Y127000D02*
X501650Y139700D01*
X488950Y127000D02*
X476250Y139700D01*
X488950Y127000D02*
X488950Y114300D01*
X577850Y177800D02*
X628650Y177800D01*
X577850Y177800D02*
X527050Y127000D01*
X501650Y127000D01*
X533400Y444500D02*
X628650Y444500D01*
X628650Y469900D01*
X628650Y254000D02*
X685800Y254000D01*
X628650Y254000D02*
X628650Y298450D01*
X628650Y336550D01*
X533400Y444500D02*
X508000Y444500D01*
X508000Y234950D01*
X527050Y215900D01*
X552450Y215900D01*
X552450Y222250D01*
X628650Y298450D01*
X406400Y114300D02*
X298450Y222250D01*
X298450Y374650D01*
X342900Y419100D01*
X381000Y419100D01*
X406400Y114300D02*
X412750Y114300D01*
X381000Y571500D02*
X685800Y571500D01*
X381000Y571500D02*
X381000Y520700D01*
X628650Y412750D02*
X685800Y412750D01*
X685800Y571500D01*
X381000Y495300D02*
X355600Y495300D01*
X711200Y596900D02*
X711200Y387350D01*
X628650Y387350D01*
X355600Y495300D02*
X355600Y596900D01*
X711200Y596900D01*
M02*
