M48
;GenerationSoftware,Autodesk,EAGLE,9.2.2*%
;CreationDate,2021-01-25T08:17:53Z*%
FMAT,2
ICI,OFF
METRIC,TZ,000.000
T1C1.016
%
G90
M71
T1
X62865Y21590
X62865Y17780
X62865Y25400
X38100Y52070
X38100Y49530
X38100Y46990
X38100Y44450
X38100Y41910
X38100Y39370
X38100Y36830
X38100Y34290
X38100Y31750
X38100Y29210
X38100Y26670
X38100Y24130
X53340Y24130
X53340Y26670
X53340Y29210
X53340Y31750
X53340Y34290
X53340Y36830
X53340Y39370
X53340Y41910
X53340Y44450
X53340Y46990
X53340Y49530
X53340Y52070
X68580Y25400
X68580Y21590
X57785Y17780
X57785Y21590
X50165Y19050
X48895Y16510
X47625Y19050
X46355Y16510
X45085Y19050
X43815Y16510
X42545Y19050
X41275Y16510
X62865Y33655
X62865Y36195
X62865Y38735
X62865Y41275
X62865Y46990
X62865Y49530
X62865Y52070
M30