<svg version="1.1" xmlns="http://www.w3.org/2000/svg" xmlns:xlink="http://www.w3.org/1999/xlink" stroke-linecap="round" stroke-linejoin="round" stroke-width="0" fill-rule="evenodd" width="33.635mm" height="31.8669978mm" viewBox="17472.5 32712.5 33635 31866.9978" id="GcCe7FWFIWLrKRh5JlW5"><defs><polygon points="1079.4978,447.14263 447.14263,1079.4978 -447.14263,1079.4978 -1079.4978,447.14263 -1079.4978,-447.14263 -447.14263,-1079.4978 447.14263,-1079.4978 1079.4978,-447.14263" id="GcCe7FWFIWLrKRh5JlW5_pad-10"/><circle cx="0" cy="0" r="939.8" id="GcCe7FWFIWLrKRh5JlW5_pad-11"/></defs><g transform="translate(0,97291.9978) scale(1,-1)" fill="currentColor" stroke="currentColor"><use xlink:href="#GcCe7FWFIWLrKRh5JlW5_pad-10" x="30480" y="63500"/><use xlink:href="#GcCe7FWFIWLrKRh5JlW5_pad-10" x="33020" y="63500"/><use xlink:href="#GcCe7FWFIWLrKRh5JlW5_pad-10" x="35560" y="63500"/><use xlink:href="#GcCe7FWFIWLrKRh5JlW5_pad-10" x="38100" y="63500"/><use xlink:href="#GcCe7FWFIWLrKRh5JlW5_pad-10" x="40640" y="63500"/><use xlink:href="#GcCe7FWFIWLrKRh5JlW5_pad-10" x="43180" y="63500"/><use xlink:href="#GcCe7FWFIWLrKRh5JlW5_pad-10" x="45720" y="63500"/><use xlink:href="#GcCe7FWFIWLrKRh5JlW5_pad-10" x="48260" y="63500"/><use xlink:href="#GcCe7FWFIWLrKRh5JlW5_pad-11" x="20320" y="44450"/><use xlink:href="#GcCe7FWFIWLrKRh5JlW5_pad-11" x="22860" y="44450"/><use xlink:href="#GcCe7FWFIWLrKRh5JlW5_pad-11" x="25400" y="44450"/><use xlink:href="#GcCe7FWFIWLrKRh5JlW5_pad-11" x="27940" y="44450"/><use xlink:href="#GcCe7FWFIWLrKRh5JlW5_pad-11" x="30480" y="44450"/><use xlink:href="#GcCe7FWFIWLrKRh5JlW5_pad-11" x="33020" y="44450"/><use xlink:href="#GcCe7FWFIWLrKRh5JlW5_pad-11" x="35560" y="44450"/><use xlink:href="#GcCe7FWFIWLrKRh5JlW5_pad-11" x="38100" y="44450"/><use xlink:href="#GcCe7FWFIWLrKRh5JlW5_pad-11" x="40640" y="44450"/><use xlink:href="#GcCe7FWFIWLrKRh5JlW5_pad-11" x="43180" y="44450"/><use xlink:href="#GcCe7FWFIWLrKRh5JlW5_pad-11" x="45720" y="44450"/><use xlink:href="#GcCe7FWFIWLrKRh5JlW5_pad-11" x="48260" y="44450"/><use xlink:href="#GcCe7FWFIWLrKRh5JlW5_pad-11" x="48260" y="59690"/><use xlink:href="#GcCe7FWFIWLrKRh5JlW5_pad-11" x="45720" y="59690"/><use xlink:href="#GcCe7FWFIWLrKRh5JlW5_pad-11" x="43180" y="59690"/><use xlink:href="#GcCe7FWFIWLrKRh5JlW5_pad-11" x="40640" y="59690"/><use xlink:href="#GcCe7FWFIWLrKRh5JlW5_pad-11" x="38100" y="59690"/><use xlink:href="#GcCe7FWFIWLrKRh5JlW5_pad-11" x="35560" y="59690"/><use xlink:href="#GcCe7FWFIWLrKRh5JlW5_pad-11" x="33020" y="59690"/><use xlink:href="#GcCe7FWFIWLrKRh5JlW5_pad-11" x="30480" y="59690"/><use xlink:href="#GcCe7FWFIWLrKRh5JlW5_pad-11" x="27940" y="59690"/><use xlink:href="#GcCe7FWFIWLrKRh5JlW5_pad-11" x="25400" y="59690"/><use xlink:href="#GcCe7FWFIWLrKRh5JlW5_pad-11" x="22860" y="59690"/><use xlink:href="#GcCe7FWFIWLrKRh5JlW5_pad-11" x="20320" y="59690"/><use xlink:href="#GcCe7FWFIWLrKRh5JlW5_pad-10" x="36830" y="38100"/><use xlink:href="#GcCe7FWFIWLrKRh5JlW5_pad-10" x="35560" y="35560"/><use xlink:href="#GcCe7FWFIWLrKRh5JlW5_pad-10" x="34290" y="38100"/><use xlink:href="#GcCe7FWFIWLrKRh5JlW5_pad-10" x="33020" y="35560"/><use xlink:href="#GcCe7FWFIWLrKRh5JlW5_pad-10" x="31750" y="38100"/><use xlink:href="#GcCe7FWFIWLrKRh5JlW5_pad-10" x="30480" y="35560"/><use xlink:href="#GcCe7FWFIWLrKRh5JlW5_pad-10" x="29210" y="38100"/><use xlink:href="#GcCe7FWFIWLrKRh5JlW5_pad-10" x="27940" y="35560"/><path d="M 25400 44450 25400 46990 19685 46990 18097.5 48577.5 18097.5 61912.5 21113.8 61912.5 22860 60166.3 22860 59690 M 30480 44450 30480 42227.5 30162.5 42227.5 26987.5 39052.5 26987.5 35560 27940 35560 M 33020 40322.5 33020 44450 M 33020 40322.5 30797.5 40322.5 29210 38735 29210 38100 M 27940 42545 27940 44450 M 27940 42545 25082.5 39687.5 25082.5 33337.5 28892.5 33337.5 30480 34925 30480 35560 31750 35560 33020 35560 M 31750 35560 31750 38100 M 20320 48895 20320 59690 M 20320 48895 46831.3 48895 50482.5 45243.8 50482.5 38100 36830 38100 35560 38100 34290 38100 M 35560 38100 35560 35560 M 30480 59690 30480 63500 M 33020 63500 33020 59690 M 35560 59690 35560 63500 M 38100 63500 38100 59690 M 40640 59690 40640 63500 M 43180 63500 43180 59690 M 45720 59690 45720 63500 M 48260 63500 48260 59690" fill="none" stroke-width="1250"/></g></svg>